<svg id="Réteg_1" data-name="Réteg 1" xmlns="http://www.w3.org/2000/svg" viewBox="0 0 50.15 57.98"><defs><style>.cls-1{fill:#000;}.cls-2{fill:none;stroke:#000;stroke-linecap:round;stroke-linejoin:round;stroke-width:1.5px;}</style></defs><path class="cls-1" d="M30.1,24.5H22.43a.74.74,0,0,1-.75-.75V1.1a.75.75,0,0,1,1.5,0V23H30.1a.75.75,0,0,1,0,1.5Z" transform="translate(0 -0.35)"/><path class="cls-1" d="M44.89,24.5h0c-4.11,0-5.24-4.8-5.27-7.33V1.1a.75.75,0,0,1,1.5,0V17.16c0,.05.12,5.83,3.77,5.84h0a3,3,0,0,0,2.31-.92c1.3-1.36,1.49-4,1.45-4.89V1.1a.75.75,0,0,1,1.5,0V17.16c0,.12.14,3.87-1.87,6A4.5,4.5,0,0,1,44.89,24.5Z" transform="translate(0 -0.35)"/><path class="cls-1" d="M12,58.32a.73.73,0,0,1-.72-.57L6.53,38.42,1.76,57.75A.75.75,0,0,1,.3,57.39L5.8,35.11a.77.77,0,0,1,.73-.57.75.75,0,0,1,.73.57l5.5,22.28a.74.74,0,0,1-.55.91A.55.55,0,0,1,12,58.32Z" transform="translate(0 -0.35)"/><line class="cls-2" x1="2.21" y1="53.09" x2="10.31" y2="53.01"/><path class="cls-1" d="M20.53,58.32a.71.71,0,0,1-.29,0,.76.76,0,0,1-.4-1l9.53-22.65a.75.75,0,1,1,1.38.58L21.22,57.87A.75.75,0,0,1,20.53,58.32Z" transform="translate(0 -0.35)"/><path class="cls-1" d="M39.75,58.32a.72.72,0,0,1-.48-.17.75.75,0,0,1-.1-1l9-10.85-9-10.85a.75.75,0,0,1,1.16-1l9.36,11.33a.74.74,0,0,1,0,.95L40.33,58.05A.76.76,0,0,1,39.75,58.32Z" transform="translate(0 -0.35)"/><path class="cls-1" d="M10.11,24.5a.76.76,0,0,1-.58-.27L.17,12.9a.74.74,0,0,1,0-1L9.53.62a.75.75,0,0,1,1.16,1l-9,10.85,9,10.84a.76.76,0,0,1-.1,1.06A.72.72,0,0,1,10.11,24.5Z" transform="translate(0 -0.35)"/></svg>