<?xml version="1.0" encoding="UTF-8" standalone="no"?>
<svg
   xmlns:dc="http://purl.org/dc/elements/1.1/"
   xmlns:cc="http://creativecommons.org/ns#"
   xmlns:rdf="http://www.w3.org/1999/02/22-rdf-syntax-ns#"
   xmlns:svg="http://www.w3.org/2000/svg"
   xmlns="http://www.w3.org/2000/svg"
   xmlns:sodipodi="http://sodipodi.sourceforge.net/DTD/sodipodi-0.dtd"
   xmlns:inkscape="http://www.inkscape.org/namespaces/inkscape"
   id="Layer_1"
   data-name="Layer 1"
   viewBox="0 0 131.19 131.19"
   version="1.1"
   sodipodi:docname="Artboard 17.svg"
   inkscape:version="0.92.4 (5da689c313, 2019-01-14)"
   inkscape:export-filename="I:\inkscape\editor logo\Artboard 17.png"
   inkscape:export-xdpi="374.66"
   inkscape:export-ydpi="374.66">
  <metadata
     id="metadata1007">
    <rdf:RDF>
      <cc:Work
         rdf:about="">
        <dc:format>image/svg+xml</dc:format>
        <dc:type
           rdf:resource="http://purl.org/dc/dcmitype/StillImage" />
        <dc:title>Artboard 16</dc:title>
      </cc:Work>
    </rdf:RDF>
  </metadata>
  <sodipodi:namedview
     pagecolor="#ffffff"
     bordercolor="#666666"
     borderopacity="1"
     objecttolerance="10"
     gridtolerance="10"
     guidetolerance="10"
     inkscape:pageopacity="0"
     inkscape:pageshadow="2"
     inkscape:window-width="1920"
     inkscape:window-height="1013"
     id="namedview1005"
     showgrid="false"
     inkscape:zoom="1.5054501"
     inkscape:cx="-81.838517"
     inkscape:cy="99.505984"
     inkscape:window-x="1171"
     inkscape:window-y="1341"
     inkscape:window-maximized="1"
     inkscape:current-layer="Layer_1" />
  <defs
     id="defs986">
    <style
       id="style979">
      .cls-1 {
        fill-rule: evenodd;
        fill: url(#linear-gradient);
      }

      .cls-2 {
        fill: #fff;
      }
    </style>
    <linearGradient
       id="linear-gradient"
       x1="591.85"
       y1="-24.94"
       x2="723.05"
       y2="-24.94"
       gradientTransform="translate(40.66 -591.85) rotate(90)"
       gradientUnits="userSpaceOnUse">
      <stop
         offset="0"
         stop-color="#3d3d3d"
         id="stop981" />
      <stop
         offset="1"
         stop-color="#121212"
         id="stop983" />
    </linearGradient>
  </defs>
  <title
     id="title988">Artboard 16</title>
  <path
     class="cls-1"
     d="M131.19,40.86V36.19c0-1.32,0-2.63-.06-3.94a57.33,57.33,0,0,0-.76-8.57,28.72,28.72,0,0,0-2.68-8.14,27.42,27.42,0,0,0-12-12A28.68,28.68,0,0,0,107.56.89,57.33,57.33,0,0,0,99,.13c-1.31,0-2.62,0-3.94-.06H90.38L72.28,0H58.75L41,.06H36.29c-1.31,0-2.63,0-3.94.06a57.48,57.48,0,0,0-8.59.76A28.64,28.64,0,0,0,15.6,3.57a27.42,27.42,0,0,0-12,12A29,29,0,0,0,.9,23.69a57.07,57.07,0,0,0-.75,8.56c0,1.31,0,2.62-.06,3.94,0,1.55-.09,3.49-.09,5.05v31.2l.08,17.9c0,1.56,0,3.12,0,4.68,0,1.32,0,2.63.06,3.94a57.34,57.34,0,0,0,.75,8.58,28.92,28.92,0,0,0,2.69,8.15,27.33,27.33,0,0,0,12,12,28.77,28.77,0,0,0,8.16,2.69,57.48,57.48,0,0,0,8.59.76c1.31,0,2.63.05,3.94.05H95.05c1.32,0,2.63,0,3.94-.05a57.22,57.22,0,0,0,8.57-.76,29,29,0,0,0,8.15-2.69,27.38,27.38,0,0,0,12-12,28.75,28.75,0,0,0,2.68-8.16,57.47,57.47,0,0,0,.76-8.58c0-1.31.05-2.62.06-3.94,0-1.56,0-3.12,0-4.68V40.86Z"
     id="path990" />
  <path
     class="cls-2"
     d="m 101.405,53.57 c -0.55048,-1.645973 -1.21888,-3.250129 -2.000001,-4.8 -0.484157,-0.970672 -0.379694,-2.131374 0.27,-3 L 105.775,37.51 c 0.84822,-1.146853 0.72913,-2.741829 -0.28,-3.75 l -4.06,-4.07 -4.070001,-4.07 c -1.011915,-1.000939 -2.600661,-1.119566 -3.75,-0.28 l -8.26,6.1 c -0.868626,0.649694 -2.029328,0.754157 -3,0.27 -1.559571,-0.77494 -3.169938,-1.443142 -4.82,-2 -1.011826,-0.347838 -1.744878,-1.231359 -1.9,-2.29 l -1.48,-10.12 c -0.212818,-1.409412 -1.424611,-2.451129 -2.85,-2.45 h -11.5 c -1.423275,0.0088 -2.628256,1.052537 -2.84,2.46 l -1.54,10.14 c -0.154678,1.062084 -0.892925,1.947207 -1.91,2.29 -1.646188,0.558527 -3.253118,1.22669 -4.81,2 -0.968821,0.493851 -2.134926,0.388902 -3,-0.27 l -8.26,-6.09 c -1.149339,-0.839566 -2.738085,-0.720939 -3.75,0.28 l -4.06,4.07 -4.07,4.07 c -1.009131,1.008171 -1.128223,2.603147 -0.28,3.75 l 6.09,8.25 c 0.658902,0.865074 0.763851,2.031179 0.27,3 -0.779279,1.557592 -1.447607,3.168264 -2,4.82 -0.342793,1.017075 -1.227916,1.755322 -2.29,1.91 l -10.09,1.47 c -1.410965,0.217351 -2.451823,1.432394 -2.45,2.86 v 11.5 c -0.0047,1.430257 1.044404,2.645684 2.46,2.85 l 10.13,1.53 c 1.06156,0.14854 1.948091,0.88409 2.29,1.9 0.556858,1.650062 1.22506,3.260429 2,4.82 0.48896,0.969761 0.384257,2.133129 -0.27,3 l -6.09,8.25 c -0.839566,1.149339 -0.720939,2.738085 0.28,3.75 l 4.07,4.07 4.07,4.06 c 1.008171,1.00913 2.603147,1.12822 3.75,0.28 l 8.25,-6.09 c 0.868626,-0.649694 2.029328,-0.754157 3,-0.27 1.54725,0.77935 3.147952,1.4477 4.79,2 1.017075,0.34279 1.755322,1.22792 1.91,2.29 l 1.51,10.09 c 0.217351,1.41096 1.432394,2.45182 2.86,2.45 h 11.5 c 1.425389,0.001 2.637182,-1.04059 2.85,-2.45 l 1.53,-10.15 c 0.155122,-1.05864 0.888174,-1.94216 1.9,-2.29 1.648494,-0.5524 3.25584,-1.22073 4.81,-2 0.970672,-0.484157 2.131374,-0.379694 3,0.27 l 8.26,6.1 c 1.150024,0.84967 2.748508,0.73063 3.76,-0.28 l 4.060001,-4.06 4.07,-4.07 c 1.00913,-1.008171 1.12822,-2.603147 0.28,-3.75 l -6.100001,-8.27 c -0.654257,-0.866871 -0.75896,-2.030239 -0.27,-3 0.776781,-1.551862 1.445051,-3.155706 2.000001,-4.8 0.34784,-1.011826 1.23136,-1.744878 2.29,-1.9 l 10.16,-1.53 c 1.41162,-0.208817 2.45542,-1.423027 2.45,-2.85 V 59.86 c -0.003,-1.450696 -1.08124,-2.674274 -2.52,-2.86 l -10.16,-1.53 c -1.05864,-0.155122 -1.94216,-0.888174 -2.29,-1.9 z M 88.904999,68 v 6.38 1.67 1.4 c -0.0051,1.025719 -0.09537,2.049243 -0.27,3.06 -0.186331,1.014446 -0.523396,1.995304 -1,2.91 -0.941721,1.834886 -2.435114,3.328279 -4.27,4.27 -0.913233,0.471793 -1.890069,0.808632 -2.9,1 -1.012041,0.164582 -2.034776,0.254824 -3.06,0.27 h -1.4 -1.64 l -6.4,0.04 h -11.08 -1.8 -1.4 c -1.00523,-0.01703 -2.007884,-0.107266 -3,-0.27 -1.009931,-0.191368 -1.986767,-0.528207 -2.9,-1 -1.834812,-0.938412 -3.325892,-2.432993 -4.26,-4.27 -0.480585,-0.912981 -0.817862,-1.89446 -1,-2.91 -0.164582,-1.012041 -0.254824,-2.034776 -0.27,-3.06 v -1.4 -1.73 -6.33 -4.81 -6.44 -1.67 -1.4 c 0.01502,-1.021916 0.105262,-2.041338 0.27,-3.05 0.182201,-1.012344 0.519502,-1.990517 1,-2.9 0.934108,-1.837007 2.425188,-3.331588 4.26,-4.27 0.911213,-0.476497 1.88876,-0.813582 2.9,-1 0.992116,-0.162734 1.99477,-0.252973 3,-0.27 h 1.4 7.619674 13.320326 1.4 c 1.025224,0.01518 2.047959,0.105418 3.06,0.27 1.01124,0.186418 1.988787,0.523503 2.9,1 1.834886,0.941721 3.328279,2.435114 4.27,4.27 0.476497,0.911213 0.813582,1.88876 1,2.9 0.175045,1.007339 0.265361,2.027576 0.27,3.05 v 1.4 1.67 V 68 Z"
     id="path992"
     inkscape:connector-curvature="0"
     style="fill:#ffffff"
     sodipodi:nodetypes="cccccccccccccccccccccccccccccccccccccccccccccccccccccccccccccccccccccccccccccccccccccccccccccccccccccccccccccccccc" />
  <g
     id="g1002"
     transform="translate(-109.20477,2.1136407)">
    <path
       class="cls-2"
       d="M 51.49,81.12 A 1.42,1.42 0 0 1 50.08,79.7 V 51.5 a 1.42,1.42 0 1 1 2.83,0 v 28.2 a 1.42,1.42 0 0 1 -1.42,1.42 z"
       id="path994"
       inkscape:connector-curvature="0"
       style="fill:#ffffff" />
    <path
       class="cls-2"
       d="M 60.9,81.12 A 1.42,1.42 0 0 1 59.48,79.7 V 51.5 a 1.42,1.42 0 1 1 2.83,0 v 28.2 a 1.42,1.42 0 0 1 -1.41,1.42 z"
       id="path996"
       inkscape:connector-curvature="0"
       style="fill:#ffffff" />
    <path
       class="cls-2"
       d="M 79.7,81.12 A 1.43,1.43 0 0 1 78.28,79.7 V 51.5 a 1.42,1.42 0 1 1 2.84,0 v 28.2 a 1.43,1.43 0 0 1 -1.42,1.42 z"
       id="path998"
       inkscape:connector-curvature="0"
       style="fill:#ffffff" />
    <path
       class="cls-2"
       d="M 70.3,81.12 A 1.43,1.43 0 0 1 68.88,79.7 V 51.5 a 1.42,1.42 0 1 1 2.84,0 v 28.2 a 1.43,1.43 0 0 1 -1.42,1.42 z"
       id="path1000"
       inkscape:connector-curvature="0"
       style="fill:#ffffff" />
  </g>
  <g
     id="g1117"
     transform="translate(0.77668473,0.71211194)">
    <circle
       style="opacity:1;fill:#ffffff;fill-opacity:1;stroke:none;stroke-width:1.66666675;stroke-linecap:round;stroke-linejoin:round;stroke-miterlimit:4;stroke-dasharray:none;stroke-opacity:1;paint-order:stroke fill markers"
       id="circle1013-9-0"
       cx="74.697105"
       cy="55.011665"
       r="5.8712239" />
    <circle
       style="opacity:1;fill:#ffffff;fill-opacity:1;stroke:none;stroke-width:1.66666675;stroke-linecap:round;stroke-linejoin:round;stroke-miterlimit:4;stroke-dasharray:none;stroke-opacity:1;paint-order:stroke fill markers"
       id="circle1013-9-0-1"
       cx="54.939529"
       cy="74.754112"
       r="5.8712239" />
    <circle
       style="opacity:1;fill:#ffffff;fill-opacity:1;stroke:none;stroke-width:1.66666675;stroke-linecap:round;stroke-linejoin:round;stroke-miterlimit:4;stroke-dasharray:none;stroke-opacity:1;paint-order:stroke fill markers"
       id="circle1013-9-0-1-5"
       cx="74.697105"
       cy="74.754112"
       r="5.8712239" />
    <circle
       style="opacity:1;fill:#ffffff;fill-opacity:1;stroke:none;stroke-width:1.66666675;stroke-linecap:round;stroke-linejoin:round;stroke-miterlimit:4;stroke-dasharray:none;stroke-opacity:1;paint-order:stroke fill markers"
       id="circle1013-9-0-1-5-6"
       cx="54.939529"
       cy="55.011665"
       r="5.8712239" />
  </g>
  <rect
     style="opacity:1;fill:#ffffff;fill-opacity:1;stroke:none;stroke-width:1.33333337;stroke-linecap:round;stroke-linejoin:round;stroke-miterlimit:4;stroke-dasharray:none;stroke-opacity:1;paint-order:stroke fill markers"
     id="rect1109"
     width="57.303146"
     height="81.72744"
     x="-75.151665"
     y="-3.8481512"
     ry="8.9285698" />
</svg>
