<?xml version="1.0" encoding="UTF-8"?><svg xmlns="http://www.w3.org/2000/svg" viewBox="0 0 432 432"><g id="a"/><g id="b"><g id="c"><path d="M393.46,0H38.54C17.25,0,0,17.25,0,38.54V393.46c0,21.28,17.25,38.54,38.54,38.54H393.46c21.28,0,38.54-17.25,38.54-38.54V38.54c0-21.28-17.25-38.54-38.54-38.54Zm12.8,184.53l-47.49,70.9c-4.18,6.23-11.81,8.98-19,6.83-7.19-2.15-12.07-8.63-12.14-16.13l-.3-29.32-32.18,40.74c-4.48,5.68-12.09,7.9-18.93,5.52-6.03-2.09-10.32-7.37-11.24-13.55l-30.31,75.77c-2.62,6.54-8.96,10.69-15.8,10.69-1.06,0-2.14-.1-3.21-.31-7.99-1.54-13.79-8.56-13.79-16.7V171.33l-30.12,75.31c-3.02,7.56-11.02,11.92-19.01,10.39-7.99-1.54-13.79-8.56-13.79-16.7v-23.4l-32.63,40.79c-4.51,5.63-12.11,7.81-18.91,5.42-6.81-2.39-11.38-8.84-11.38-16.05v-23.97l-26.83,40.06c-4.34,6.48-13.11,8.21-19.59,3.87-6.48-4.34-8.21-13.11-3.87-19.59l47.39-70.76c4.2-6.27,11.87-9,19.08-6.81,7.21,2.19,12.06,8.73,12.06,16.27v28.9l32.63-40.79c4.51-5.63,12.11-7.81,18.91-5.42,6.02,2.11,10.3,7.41,11.2,13.6l30.3-75.75c3.02-7.56,11.02-11.92,19.01-10.39,7.99,1.54,13.79,8.56,13.79,16.7v147.65l30.12-75.31c3.02-7.56,11.02-11.92,19.01-10.39,7.99,1.54,13.79,8.56,13.79,16.7v23l31.86-40.33c4.46-5.65,12.03-7.88,18.85-5.55,6.81,2.33,11.44,8.73,11.51,15.93l.25,24.85,27.29-40.75c4.34-6.48,13.11-8.21,19.59-3.87,6.48,4.34,8.21,13.11,3.87,19.59Z"/></g></g></svg>