<?xml version="1.0"?>
<svg version="1.1" id="圖層_1" xmlns="http://www.w3.org/2000/svg" x="0" y="0" viewBox="0 0 100 100" xml:space="preserve"><path d="M79.6 44.474a29.806 29.806 0 0 0-1.183-4.433l8.695-5.26a39.941 39.941 0 0 0-5.328-9.206l-8.901 4.899a30.145 30.145 0 0 0-3.241-3.241l4.899-8.901a39.941 39.941 0 0 0-9.206-5.328l-5.26 8.695a29.685 29.685 0 0 0-4.433-1.183l-.207-10.154c-1.741-.231-3.513-.362-5.318-.362s-3.577.131-5.318.363l-.207 10.154c-1.521.283-3.002.68-4.433 1.183l-5.26-8.695a39.941 39.941 0 0 0-9.206 5.328l4.899 8.901a30.145 30.145 0 0 0-3.241 3.241l-8.901-4.899a39.941 39.941 0 0 0-5.328 9.206l8.695 5.26a29.685 29.685 0 0 0-1.183 4.433l-10.154.207c-.231 1.741-.363 3.514-.363 5.318s.131 3.577.363 5.318l10.154.207c.283 1.521.68 3.002 1.183 4.433l-8.695 5.26a39.941 39.941 0 0 0 5.328 9.206l8.901-4.899a30.145 30.145 0 0 0 3.241 3.241l-4.899 8.901a39.941 39.941 0 0 0 9.206 5.328l5.26-8.695c1.431.504 2.912.9 4.433 1.183l.207 10.154c1.741.232 3.514.363 5.318.363s3.577-.131 5.318-.363l.207-10.154a29.806 29.806 0 0 0 4.433-1.183l5.26 8.695a39.941 39.941 0 0 0 9.206-5.328l-4.899-8.901a30.145 30.145 0 0 0 3.241-3.241l8.901 4.899a39.941 39.941 0 0 0 5.328-9.206l-8.695-5.26c.504-1.431.9-2.912 1.183-4.433l10.154-.207c.231-1.741.363-3.514.363-5.318s-.131-3.577-.363-5.318L79.6 44.474zM50 70c-11.046 0-20-8.954-20-20s8.954-20 20-20 20 8.954 20 20-8.954 20-20 20z" fill="#333"/><path d="M60.678 60.884c3.567-3.567 4.981-8.46 4.268-13.09-.091-.589-.822-.821-1.243-.4l-9.189 9.188a2.411 2.411 0 0 1-2.329.624l-6.049-1.621a2.412 2.412 0 0 1-1.705-1.705l-1.621-6.049a2.411 2.411 0 0 1 .624-2.329l9.188-9.188c.423-.423.188-1.154-.403-1.245-5.023-.771-10.353.959-13.965 5.224-4.063 4.798-4.622 11.62-1.764 17.001L11.626 78.386a7.077 7.077 0 1 0 10.003 10.003l21.089-24.86c5.767 3.09 13.095 2.22 17.96-2.645zM14.314 85.702a3.333 3.333 0 1 1 4.715-4.713 3.333 3.333 0 0 1-4.715 4.713z" fill="#f8b26a"/><metadata xmlns:d="https://loading.io/stock/"><d:name>wrench</d:name><d:tags>config,setting,machinary,profile,setup,edit,asembly,wrench,gear</d:tags><d:license>by</d:license><d:slug>7lj54u</d:slug></metadata></svg>