<svg width="18" height="18" viewBox="0 0 18 18" fill="none" xmlns="http://www.w3.org/2000/svg">
<path d="M1.43859 17.9635C0.76183 17.8762 0.223722 17.4021 0.0514418 16.7415C0.00617273 16.5679 0.000213542 15.6661 0.000213542 8.98967C0.000213542 0.668927 -0.0147457 1.26148 0.205747 0.848253C0.401577 0.481252 0.741151 0.204053 1.15446 0.0738035L1.38866 0H9H16.6113L16.8455 0.0738035C17.2588 0.204053 17.5984 0.481252 17.7943 0.848253C18.0147 1.26148 17.9998 0.668927 17.9998 8.98967C17.9998 15.6661 17.9938 16.5679 17.9486 16.7415C17.8045 17.2941 17.4041 17.7226 16.8623 17.9043C16.6492 17.9757 16.6011 17.9774 14.4618 17.9886L12.2787 18V14.322V10.6439H13.3989H14.519L14.5358 10.5687C14.545 10.5274 14.6208 10.0048 14.7043 9.40741C14.7878 8.81004 14.8637 8.28746 14.8729 8.2461L14.8896 8.17091H13.579H12.2684L12.2893 7.42734C12.3108 6.66323 12.3396 6.47123 12.4713 6.21591C12.5625 6.03917 12.6936 5.91893 12.8977 5.82503C13.0571 5.75164 13.1076 5.74754 13.9766 5.7373L14.8883 5.72655V4.54482C14.8883 3.4481 14.8841 3.36188 14.8298 3.34618C14.6404 3.29144 13.8039 3.253 13.1115 3.26721C12.4599 3.28059 12.2825 3.29514 12.0514 3.3542C11.0012 3.62264 10.346 4.23777 10.0241 5.25776C9.85786 5.78429 9.82886 6.04156 9.8115 7.14328L9.79531 8.17091H8.57797H7.36063V9.40741V10.6439H8.58179H9.80295V14.32V17.996L5.7129 17.9917C3.46337 17.9893 1.53993 17.9766 1.43859 17.9635Z" fill="#F3F3F3" fill-opacity="0.5"/>
</svg>
