<svg width="19" height="18" viewBox="0 0 19 18" fill="none" xmlns="http://www.w3.org/2000/svg">
<path d="M12.2965 17.8378C12.2046 17.7486 12.1158 17.6409 12.0991 17.5983C12.0811 17.5523 12.053 16.9489 12.0298 16.1074C11.9949 14.8457 11.9847 14.6738 11.9344 14.5081C11.7534 13.9113 11.4773 13.4256 11.0997 13.0399C10.8683 12.8034 10.6963 12.6764 10.4426 12.5547L10.2561 12.4653L10.4644 12.4464C11.5296 12.3501 12.5983 12.0275 13.2932 11.5924C13.5358 11.4405 14.1982 10.8076 14.322 10.6094L14.4052 10.4762L14.9567 10.494C15.744 10.5195 16.5903 10.5787 17.3826 10.6639C17.8298 10.712 18.0791 10.7284 18.0971 10.711C18.1234 10.6854 18.183 10.3145 18.1641 10.2937C18.1493 10.2774 17.4152 10.1877 16.8089 10.1281C16.4978 10.0975 15.8997 10.058 15.4798 10.0403C15.0599 10.0226 14.7058 9.999 14.6929 9.98781C14.6628 9.96157 14.7277 9.75014 14.7785 9.70925C14.8068 9.68643 15.2808 9.6794 16.5271 9.68329L18.2369 9.68864V9.47056V9.25248L18.1026 9.23481C18.0287 9.22509 17.284 9.20722 16.4477 9.19509C15.6115 9.18296 14.9179 9.16404 14.9066 9.15306C14.8953 9.14207 14.8782 8.85937 14.8688 8.52484C14.8529 7.96032 14.8462 7.90082 14.7752 7.69709C14.6805 7.42533 14.4546 6.96093 14.3349 6.79208L14.2451 6.66555L14.3305 6.28959C14.4482 5.77147 14.476 5.54489 14.4754 5.10909C14.4747 4.57559 14.3906 4.23799 14.2126 4.05472C14.1451 3.98519 14.1223 3.97927 13.9232 3.97927C13.3456 3.97927 12.729 4.1932 12.0294 4.63635C11.9115 4.71106 11.7997 4.76706 11.781 4.76082C11.5604 4.68692 11.0056 4.53989 10.7333 4.48318C10.4262 4.41921 10.3101 4.41022 9.63826 4.39837C9.03875 4.3878 8.82425 4.39406 8.57784 4.42931C8.23884 4.47781 7.73551 4.59657 7.40859 4.7052C7.29311 4.74357 7.1839 4.77496 7.1659 4.77496C7.1479 4.77496 7.00833 4.69397 6.85575 4.59499C6.23276 4.19082 5.60483 3.97927 5.02819 3.97927H4.80527L4.72118 4.0919C4.55167 4.31895 4.51436 4.46809 4.50016 4.97538C4.48575 5.49052 4.51357 5.7687 4.63188 6.29239L4.71074 6.6415L4.61387 6.79754C4.18053 7.49553 4.04173 7.9815 4.04152 8.80147L4.04141 9.24733L2.84667 9.24824C1.60236 9.24917 0.802313 9.27877 0.754006 9.32564C0.735803 9.3433 0.734572 9.41959 0.750541 9.54027L0.775317 9.7275L2.18921 9.73039C4.2311 9.73455 4.08784 9.72889 4.16995 9.80857C4.20812 9.84561 4.23936 9.90547 4.23936 9.9416C4.23936 10.0071 4.23802 10.0073 3.82226 10.0259C2.75999 10.0733 1.16013 10.2214 0.934825 10.2933L0.839833 10.3236L0.851327 10.4988C0.857649 10.5951 0.878109 10.6888 0.896794 10.7069C0.931886 10.741 1.01162 10.7356 2.0054 10.6323C2.48736 10.5822 3.39881 10.5171 3.91416 10.4959C4.1319 10.487 4.34946 10.4738 4.39764 10.4667C4.47749 10.4548 4.49404 10.4666 4.58512 10.5997C4.83845 10.9699 5.19475 11.3027 5.66289 11.6065C6.27938 12.0065 7.20619 12.2954 8.27602 12.4212C8.49765 12.4472 8.67898 12.4774 8.67898 12.4883C8.67898 12.4993 8.63556 12.5221 8.58248 12.5391C8.41033 12.5942 8.10613 12.8278 7.78823 13.149C7.49642 13.4438 7.46667 13.4661 7.3075 13.5081C7.21419 13.5328 6.99687 13.567 6.82457 13.5843C6.41868 13.6248 5.33792 13.6054 5.2008 13.5551C4.98122 13.4746 4.76847 13.3081 4.31005 12.8581C3.84134 12.398 3.55922 12.1708 3.35302 12.0872C3.16872 12.0125 2.85374 12.0506 2.85374 12.1476C2.85374 12.1684 2.97968 12.3213 3.1336 12.4873C3.44746 12.8256 3.51763 12.9421 3.84152 13.6622C3.96241 13.931 4.11007 14.2222 4.16965 14.3093C4.31258 14.5182 4.54103 14.6886 4.81905 14.7937L5.04527 14.8792L6.01485 14.9083L6.98443 14.9374L6.96875 15.9817C6.94847 17.3329 6.93785 17.5127 6.87083 17.6402C6.79577 17.783 6.57671 17.9726 6.48684 17.9726C6.30805 17.9726 5.40135 17.5856 4.81905 17.2608C4.01647 16.8131 3.45303 16.3891 2.74017 15.6964C2.0688 15.044 1.65233 14.5136 1.18789 13.7197C0.587139 12.6927 0.15672 11.3708 0.0265195 10.1528C-0.00864976 9.82377 -0.00889456 8.72123 0.0261179 8.34426C0.063216 7.94483 0.155343 7.43458 0.271307 6.98626C1.19443 3.41746 4.26267 0.694656 8.01495 0.114427C10.6519 -0.29334 13.3367 0.398905 15.4374 2.02822C15.7676 2.28433 16.4426 2.91971 16.7376 3.25216C17.6642 4.29625 18.3877 5.65672 18.7305 6.99969C18.9259 7.76513 19.0003 8.38564 19 9.24733C18.9995 10.5582 18.7512 11.7315 18.224 12.9137C17.3709 14.8267 15.711 16.5341 13.8018 17.4625C13.3729 17.6711 12.561 18 12.4751 18C12.4688 18 12.3885 17.927 12.2965 17.8378Z" fill="#F3F3F3" fill-opacity="0.5"/>
</svg>
