<svg width="18" height="18" viewBox="0 0 18 18" fill="none" xmlns="http://www.w3.org/2000/svg">
<path d="M4.76874 17.9696C2.44649 17.7641 0.54253 16.0457 0.071647 13.7301L0 13.3777V9.00192V4.62609L0.0722213 4.27077C0.546664 1.93657 2.4641 0.225674 4.82413 0.030728C5.33503 -0.0114743 12.697 -0.0096551 13.1853 0.0327939C15.5544 0.238728 17.4531 1.93544 17.9278 4.27077L18 4.62609V9.00192V13.3777L17.9286 13.729C17.4524 16.0701 15.5575 17.7648 13.1853 17.971C12.7309 18.0105 5.2171 18.0092 4.76874 17.9696ZM9.44859 13.6754C11.3223 13.4787 12.8561 12.2657 13.4654 10.4989C13.6703 9.90494 13.7574 9.0438 13.6757 8.42161C13.5565 7.51443 13.1967 6.69705 12.6008 5.9796C11.648 4.83248 10.0951 4.18545 8.62657 4.32377C7.9489 4.3876 7.52744 4.50475 6.92308 4.79728C6.11182 5.18995 5.46764 5.77309 4.98173 6.55469C4.19565 7.81912 4.07434 9.43654 4.66133 10.8265C5.10222 11.8705 5.90313 12.7132 6.92308 13.2064C7.76878 13.6153 8.5824 13.7664 9.44859 13.6754ZM14.6607 4.28975C14.8303 4.23955 15.0727 4.00005 15.1178 3.83815C15.2023 3.53493 15.1029 3.19017 14.8828 3.02281C14.3314 2.6036 13.5611 3.08303 13.7057 3.75538C13.797 4.1795 14.2247 4.41882 14.6607 4.28975Z" fill="#F3F3F3" fill-opacity="0.5"/>
<path d="M8.48451 12.2354C8.15367 12.1817 7.845 12.0811 7.52405 11.9225C7.17876 11.7518 7.02244 11.6409 6.71384 11.3472C6.278 10.9325 6.0035 10.4821 5.81474 9.87201C5.7327 9.60686 5.72705 9.55064 5.72705 8.9995C5.72705 8.44836 5.7327 8.39214 5.81474 8.12699C6.0035 7.51687 6.278 7.06648 6.71384 6.65178C7.02173 6.35883 7.17775 6.24792 7.52405 6.07582C8.45969 5.61086 9.53865 5.61109 10.4774 6.07646C10.8298 6.25113 11.0763 6.43221 11.3632 6.72727C11.7708 7.14627 12.0102 7.55328 12.1848 8.12381C12.2667 8.39158 12.2725 8.44909 12.2725 8.9995C12.2725 9.54991 12.2667 9.60742 12.1848 9.87518C12.0017 10.4735 11.721 10.933 11.2857 11.3472C10.9851 11.6333 10.8278 11.7466 10.5043 11.9099C9.89226 12.219 9.13462 12.3411 8.48451 12.2354Z" fill="#F3F3F3" fill-opacity="0.5"/>
</svg>
