<svg width="18" height="18" viewBox="0 0 18 18" fill="none" xmlns="http://www.w3.org/2000/svg">
<path d="M1.74928 17.9635C1.0736 17.8406 0.519757 17.4181 0.21983 16.7967C-0.018501 16.3029 0.000351767 16.9729 0.000351767 8.99718C0.000351767 1.02151 -0.018501 1.69148 0.21983 1.19768C0.490479 0.636912 0.987399 0.227076 1.60743 0.0532472C1.78886 0.00238306 2.11969 0 9 0C15.8803 0 16.2111 0.00238314 16.3926 0.0532472C17.0126 0.227076 17.5095 0.636912 17.7802 1.19768C18.0185 1.69148 17.9996 1.02151 17.9996 8.99718C17.9996 16.9723 18.0185 16.3026 17.7804 16.7967C17.5746 17.2235 17.2372 17.5657 16.8163 17.7743C16.3328 18.0139 17.0742 17.9924 9.08766 17.9986C3.12062 18.0032 1.93663 17.9976 1.74928 17.9635ZM8.37178 14.9311C8.88553 14.7997 9.28255 14.6144 9.6856 14.3178C10.3945 13.796 10.9109 12.9957 11.1017 12.1228C11.1768 11.7795 11.1906 11.2976 11.1923 8.95336L11.1942 6.48498L11.2731 6.58722C11.8992 7.39875 12.8614 7.87253 13.8835 7.87253H14.1719V6.85389V5.83525L14.0185 5.81556C12.8969 5.6716 11.9023 4.93656 11.4654 3.92862C11.3562 3.67666 11.2207 3.18953 11.2207 3.04887V2.96498H10.3487H9.47666L9.45758 3.42506C9.44708 3.67811 9.43822 5.60717 9.43788 7.71187C9.43737 10.9644 9.43084 11.5693 9.39434 11.7431C9.2107 12.6175 8.30635 13.2758 7.38014 13.2092C6.62275 13.1548 5.97297 12.6443 5.73722 11.9183C5.62794 11.5818 5.62869 11.1427 5.73913 10.802C5.8343 10.5085 6.04839 10.1791 6.27663 9.97505C6.60452 9.68185 7.12859 9.49165 7.54632 9.51423L7.74355 9.5249V8.61108V7.69726H7.44057C5.74142 7.69726 4.26989 8.92526 3.89697 10.6544C3.8239 10.9932 3.82462 11.7366 3.89835 12.079C4.22321 13.5877 5.36602 14.7006 6.88157 14.984C7.25259 15.0534 7.99702 15.027 8.37178 14.9311Z" fill="#F3F3F3" fill-opacity="0.5"/>
</svg>
