<svg width="18" height="18" viewBox="0 0 18 18" fill="none" xmlns="http://www.w3.org/2000/svg">
<path d="M2.61534 17.9791C2.14508 17.923 1.58004 17.6928 1.19226 17.3993C0.753292 17.0671 0.378107 16.5661 0.186666 16.0565C-0.0108735 15.5307 0.000109999 15.9463 0.000109999 8.99794C0.000109999 2.0496 -0.0108734 2.46517 0.186666 1.93938C0.379045 1.42732 0.752913 0.929287 1.19815 0.591977C1.45969 0.393835 1.91544 0.174921 2.26469 0.0796825L2.5569 0H9H15.4431L15.7353 0.080226C16.0919 0.17814 16.513 0.377247 16.7766 0.572607C17.2309 0.909343 17.6181 1.41983 17.8133 1.93938C18.0109 2.46517 17.9999 2.0496 17.9999 8.99794C17.9999 15.9463 18.0109 15.5307 17.8133 16.0565C17.621 16.5686 17.2471 17.0666 16.8019 17.4039C16.5403 17.602 16.0845 17.821 15.7353 17.9162L15.4431 17.9959L9.13149 17.9997C5.66011 18.0018 2.72784 17.9926 2.61534 17.9791ZM6.6208 12.1834C7.54008 11.1074 8.3041 10.2231 8.31863 10.2183C8.33316 10.2134 8.96907 11.0967 9.73176 12.1811L11.1185 14.1527L12.8385 14.1535L14.5586 14.1542L14.5063 14.0739C14.4775 14.0297 13.503 12.6423 12.3406 10.9907C11.1783 9.3392 10.2273 7.982 10.2273 7.97473C10.2273 7.96747 10.9998 7.05697 11.944 5.95141C12.8881 4.84585 13.6787 3.91888 13.7008 3.89148C13.7383 3.84486 13.7052 3.84165 13.1875 3.84165H12.6342L11.175 5.55132C9.88277 7.06547 9.71178 7.25508 9.67985 7.20922C9.66002 7.18075 9.12045 6.41468 8.48081 5.50685L7.31783 3.85626L5.60213 3.84872C4.65849 3.84458 3.88643 3.84919 3.88643 3.85899C3.88643 3.8744 7.58332 9.13931 7.76219 9.37864L7.82838 9.4672L6.05464 11.5436C5.07908 12.6856 4.17781 13.7405 4.05181 13.8878L3.82272 14.1555L4.38606 14.1476L4.94939 14.1396L6.6208 12.1834Z" fill="#F3F3F3" fill-opacity="0.5"/>
<path d="M9.9878 11.005C9.10876 9.75654 7.75171 7.83098 6.97212 6.72602L5.55469 4.717L6.20015 4.72485L6.84561 4.73271L9.85137 8.99303C11.5045 11.3362 12.8571 13.2589 12.8571 13.2656C12.8571 13.2723 12.5711 13.2772 12.2216 13.2764L11.586 13.275L9.9878 11.005Z" fill="#F3F3F3" fill-opacity="0.5"/>
</svg>
