<svg width="23" height="16" viewBox="0 0 23 16" fill="none" xmlns="http://www.w3.org/2000/svg">
<path d="M8.82187 15.9684C6.16462 15.8699 3.37381 15.5833 2.5271 15.3219C1.58068 15.0297 0.849095 14.3867 0.556883 13.5904C0.37946 13.1068 0.161397 11.6287 0.0449382 10.1202C-0.0149291 9.34476 -0.0149944 6.71877 0.0448326 5.87196C0.15036 4.37829 0.359037 2.82082 0.511168 2.39144C0.73572 1.75767 1.20811 1.25833 1.91273 0.909908C2.33056 0.7033 2.69563 0.603853 3.47723 0.483721C7.19243 -0.0873016 13.6229 -0.163293 18.0111 0.311968C18.8193 0.399507 19.9008 0.568569 20.192 0.652917C20.9837 0.882181 21.6725 1.3656 22.0427 1.95177C22.1184 2.0716 22.2206 2.29249 22.2699 2.44263C22.5058 3.16148 22.8299 5.37531 22.9417 7.03213C22.9626 7.34179 22.987 7.67961 22.9959 7.78283C23.0163 8.02028 22.9575 9.24413 22.886 10.069C22.7817 11.273 22.5381 13.0343 22.4137 13.4844C22.1872 14.3041 21.4839 14.9629 20.4715 15.3037C19.647 15.5812 16.8938 15.8627 13.9351 15.9721C12.8835 16.0109 9.91285 16.0088 8.82187 15.9684ZM11.7718 9.78754C13.5582 8.8257 15.0198 8.02339 15.0199 8.00463C15.0199 7.97702 8.56018 4.47293 8.50924 4.47293C8.50104 4.47293 8.49433 6.06219 8.49433 8.00463C8.49433 9.94706 8.50098 11.5363 8.5091 11.5363C8.51723 11.5363 9.98546 10.7494 11.7718 9.78754Z" fill="#F3F3F3" fill-opacity="0.5"/>
</svg>
